<?xml version="1.0" standalone="no"?>
<!DOCTYPE svg PUBLIC "-//W3C//DTD SVG 20010904//EN"
 "http://www.w3.org/TR/2001/REC-SVG-20010904/DTD/svg10.dtd">
<svg version="1.0" xmlns="http://www.w3.org/2000/svg"
 width="500.000000pt" height="500.000000pt" viewBox="0 0 500.000000 500.000000"
 preserveAspectRatio="xMidYMid meet">

<g transform="translate(0.000000,500.000000) scale(0.100000,-0.100000)"
fill="#000000" stroke="none">
<path d="M2138 4138 c-21 -47 -80 -104 -154 -147 -177 -104 -321 -215 -363
-278 -15 -23 -35 -68 -44 -100 -13 -47 -28 -69 -71 -112 l-54 -53 21 59 c23
68 27 216 8 348 -14 97 -27 115 -36 49 -20 -163 -38 -236 -82 -330 -101 -221
-113 -255 -113 -329 -1 -63 -4 -74 -32 -110 -25 -32 -29 -35 -24 -15 13 45 20
430 8 430 -19 0 -78 -180 -109 -335 -11 -55 -17 -144 -18 -282 -1 -112 -5
-206 -8 -210 -4 -3 -7 12 -7 35 0 107 -72 287 -150 372 l-41 45 6 -52 c3 -28
12 -121 20 -205 20 -223 47 -320 115 -418 14 -19 19 -53 24 -155 7 -153 26
-276 61 -398 136 -465 495 -851 947 -1016 334 -122 668 -131 1016 -25 45 13
82 29 82 34 0 14 -8 13 -90 -15 -142 -48 -279 -69 -460 -68 -179 0 -284 15
-434 58 -481 139 -876 524 -1029 1001 -51 159 -70 283 -71 459 -1 131 2 155
18 180 10 17 82 93 160 170 172 171 207 227 214 355 2 44 1 80 -4 80 -5 0 -20
-21 -34 -47 -13 -25 -78 -102 -143 -171 -65 -68 -131 -148 -147 -176 -17 -28
-30 -43 -30 -34 0 29 69 226 104 297 37 76 55 89 216 151 58 23 127 56 155 73
96 61 229 187 214 202 -2 2 -43 -9 -90 -24 -99 -32 -244 -106 -319 -163 -29
-22 -53 -38 -55 -36 -8 8 143 195 173 215 56 37 155 53 329 53 231 0 340 29
441 115 61 53 54 67 -15 33 -57 -28 -63 -28 -263 -33 -113 -3 -232 -10 -264
-15 -33 -5 -61 -8 -63 -6 -5 5 77 63 154 109 152 92 345 162 533 194 124 20
365 20 490 -1 473 -78 889 -380 1109 -806 102 -199 154 -381 170 -597 19 -267
-29 -520 -145 -770 -24 -51 -38 -93 -33 -93 14 0 91 165 124 263 125 374 97
824 -72 1162 -233 466 -653 780 -1153 861 -124 20 -366 20 -490 0 -228 -37
-430 -118 -645 -258 l-60 -39 40 35 c22 19 83 61 135 92 145 86 234 158 279
225 44 65 74 146 69 181 -4 20 -6 19 -20 -14z m-48 -127 c-11 -22 -41 -62 -68
-88 -44 -44 -85 -73 -277 -194 -38 -24 -87 -61 -107 -81 -47 -47 -49 -30 -5
42 38 64 156 159 321 258 58 35 116 72 128 82 31 26 31 26 8 -19z m-616 -396
c-11 -106 -47 -184 -148 -320 l-59 -80 5 60 c4 46 23 97 78 219 39 88 78 189
87 225 8 36 17 77 21 91 9 39 23 -125 16 -195z m708 -31 c-10 -7 -47 -23 -83
-35 -55 -19 -95 -23 -284 -30 -121 -4 -233 -11 -250 -14 l-30 -7 34 26 c73 55
184 72 488 72 116 0 139 -2 125 -12z m-1001 -400 c-11 -89 -46 -231 -75 -296
-14 -32 -14 -30 -15 57 -1 118 13 235 45 365 41 164 48 173 52 60 2 -52 -2
-136 -7 -186z m528 210 c-40 -44 -171 -138 -224 -161 -28 -12 -93 -40 -145
-62 l-95 -40 67 62 c80 74 197 147 310 193 102 41 120 43 87 8z m-765 -346
c18 -29 46 -84 61 -123 28 -67 29 -78 29 -230 1 -98 -3 -162 -9 -164 -14 -5
-62 93 -80 164 -12 48 -45 336 -45 392 0 23 9 15 44 -39z m483 3 c-12 -100
-70 -184 -232 -335 -99 -93 -115 -104 -110 -80 18 78 67 152 184 276 66 70
128 141 137 158 10 16 20 30 23 30 2 0 1 -22 -2 -49z"/>
<path d="M3071 3639 c-6 -18 -9 -34 -7 -36 2 -2 9 10 15 28 6 18 9 34 7 36 -2
2 -9 -10 -15 -28z"/>
<path d="M3155 3620 c-17 -32 -20 -66 -6 -74 4 -3 6 6 3 20 -3 17 3 36 17 55
12 16 17 29 12 29 -6 0 -17 -13 -26 -30z"/>
<path d="M3218 3638 c17 -22 5 -64 -25 -88 -27 -21 -24 -26 7 -10 10 5 24 26
30 46 11 31 10 38 -6 53 -17 15 -17 15 -6 -1z"/>
<path d="M3255 3567 c-30 -52 -32 -64 -7 -39 10 9 17 22 16 27 -2 6 3 19 11
29 12 16 17 17 30 6 21 -17 19 -41 -5 -47 -14 -4 -20 -13 -19 -32 2 -23 2 -24
6 -3 2 12 11 22 18 22 23 0 29 39 9 61 -24 27 -30 25 -59 -24z"/>
<path d="M3070 3575 c14 -8 30 -14 35 -14 6 0 -1 6 -15 14 -14 8 -29 14 -35
14 -5 0 1 -6 15 -14z"/>
<path d="M3341 3512 c-17 -27 -31 -51 -31 -54 0 -3 12 -13 28 -22 l27 -17 -23
20 c-19 17 -21 24 -12 41 9 16 15 18 30 10 29 -15 37 -12 12 5 -18 13 -20 19
-10 35 7 10 16 16 22 13 5 -3 6 -1 2 5 -10 17 -11 17 -45 -36z"/>
<path d="M3415 3454 c-20 -25 -35 -47 -33 -50 3 -2 18 14 34 37 24 35 29 38
35 22 6 -14 8 -13 8 10 1 15 -1 27 -3 27 -2 0 -20 -20 -41 -46z"/>
<path d="M3476 3418 l-26 -33 -1 30 c-1 27 -2 25 -9 -10 -12 -62 -8 -61 51 18
29 38 16 34 -15 -5z"/>
<path d="M3558 3409 l23 -26 -61 -17 c-33 -9 -60 -18 -60 -20 0 -1 15 -15 32
-32 31 -27 31 -27 9 -2 l-24 27 27 11 c15 5 38 13 52 16 35 9 37 18 6 45 l-27
24 23 -26z"/>
<path d="M3573 3318 c-33 -38 -36 -48 -17 -69 9 -10 21 -19 27 -19 5 0 -1 8
-14 19 -22 18 -23 19 -5 45 9 15 27 31 39 36 14 6 17 9 6 9 -8 1 -25 -9 -36
-21z"/>
<path d="M3641 3323 c12 -20 10 -25 -16 -54 -22 -23 -24 -29 -10 -21 12 6 27
22 35 37 12 23 12 28 -4 43 -17 16 -18 16 -5 -5z"/>
<path d="M3675 3209 c-57 -43 -58 -44 -34 -65 l22 -19 -14 23 c-12 20 -12 24
1 32 8 5 20 8 25 7 16 -6 18 -39 3 -48 -10 -7 -10 -9 0 -9 19 0 26 28 14 54
-8 18 -6 25 8 34 13 8 21 7 31 -1 11 -10 11 -9 0 6 -7 9 -14 17 -15 17 0 0
-19 -14 -41 -31z"/>
<path d="M3726 3179 c-11 -11 -15 -19 -9 -19 12 0 38 28 32 34 -2 2 -13 -5
-23 -15z"/>
<path d="M2307 3152 c-19 -47 -21 -62 -9 -62 11 0 36 74 30 91 -2 7 -12 -6
-21 -29z"/>
<path d="M3461 3164 c-103 -52 -205 -176 -287 -348 -36 -76 -91 -237 -95 -280
-1 -6 -50 -57 -110 -114 -136 -129 -144 -130 -144 -10 0 137 -23 141 -96 17
-44 -77 -59 -91 -59 -57 0 28 43 207 64 267 40 111 3 121 -61 17 -48 -78 -84
-161 -153 -351 -26 -71 -53 -131 -59 -133 -7 -2 -11 23 -11 81 0 99 29 224 85
367 43 113 51 140 37 140 -13 0 -93 -184 -121 -277 -27 -92 -44 -224 -36 -288
7 -57 14 -72 35 -75 41 -6 40 -9 114 215 79 236 161 377 106 181 -30 -107 -37
-198 -17 -215 23 -18 32 -9 84 80 25 43 50 79 55 79 5 0 6 -21 3 -47 -8 -55 5
-97 33 -112 24 -13 76 19 171 105 l63 58 -8 -65 c-5 -35 -9 -125 -9 -199 1
-169 24 -260 80 -309 20 -17 42 -31 50 -31 55 0 117 56 233 209 106 139 302
424 302 440 0 33 -35 -3 -114 -122 -193 -286 -356 -487 -406 -500 -33 -8 -63
28 -91 109 -21 62 -24 85 -23 224 1 225 42 406 139 605 88 183 240 335 335
335 31 0 24 -26 -21 -75 -43 -46 -47 -65 -11 -46 34 18 72 71 72 100 0 57 -46
66 -129 25z"/>
<path d="M3716 3117 c-53 -42 -15 -94 48 -65 38 19 54 51 36 73 -18 22 -51 18
-84 -8z m81 -4 c4 -10 -3 -24 -21 -40 -43 -36 -85 -27 -71 16 11 35 81 54 92
24z"/>
<path d="M1886 3049 c-57 -67 -159 -262 -226 -431 l-42 -107 -67 -22 c-89 -29
-116 -44 -167 -91 -37 -34 -44 -47 -44 -78 0 -30 5 -39 27 -49 16 -7 30 -8 35
-3 6 6 -1 12 -16 16 -17 4 -26 13 -26 26 0 43 122 130 202 145 l38 7 -15 -48
c-63 -204 -154 -469 -163 -472 -8 -2 -8 6 -2 27 7 24 5 31 -5 31 -26 0 -42
-92 -20 -113 38 -38 47 -19 158 328 l83 260 59 8 c35 5 61 5 67 -1 6 -6 5 -39
-3 -88 -18 -115 -16 -430 4 -528 18 -86 44 -147 66 -154 11 -4 12 1 6 19 -46
145 -48 163 -52 379 -3 147 0 239 9 290 l13 75 200 0 c110 0 206 4 213 8 22
15 14 40 -10 34 -56 -14 -132 -17 -253 -10 l-130 8 -3 27 c-2 15 20 116 49
225 73 280 73 279 66 297 -9 23 -22 20 -51 -15z m-36 -250 c-29 -107 -56 -211
-61 -232 -11 -42 -13 -43 -81 -50 -63 -6 -62 -1 8 160 79 183 173 351 181 326
2 -6 -19 -97 -47 -204z"/>
<path d="M3773 3020 c-36 -22 -41 -40 -17 -64 18 -18 30 -20 39 -6 3 5 0 7 -8
4 -18 -6 -39 19 -32 38 11 29 87 50 98 28 3 -6 4 -5 3 2 -4 21 -49 20 -83 -2z"/>
<path d="M3842 2984 c-7 -8 -8 -14 -3 -14 10 0 25 19 20 25 -2 1 -10 -3 -17
-11z"/>
<path d="M3868 2933 c29 -5 38 -28 21 -51 -12 -16 -11 -15 6 1 25 22 10 52
-26 53 -24 1 -24 1 -1 -3z"/>
<path d="M3799 2913 c-13 -17 -13 -17 6 -3 11 8 22 16 24 17 2 2 0 3 -6 3 -6
0 -17 -8 -24 -17z"/>
<path d="M3793 2870 c2 -8 14 -16 28 -17 19 -1 20 -1 4 4 -11 3 -24 10 -28 17
-6 7 -7 6 -4 -4z"/>
<path d="M3825 2813 c11 -3 23 -10 27 -17 6 -8 8 -8 8 1 0 6 8 14 18 16 9 3
-3 5 -28 5 -25 0 -36 -3 -25 -5z"/>
<path d="M3920 2812 c0 -5 -12 -15 -27 -23 -16 -8 -37 -23 -48 -33 -20 -19
-19 -19 13 0 46 26 89 63 75 64 -7 0 -13 -4 -13 -8z"/>
<path d="M1560 1539 c-25 -23 -31 -32 -15 -20 51 35 81 61 70 60 -5 0 -30 -18
-55 -40z"/>
<path d="M3840 1550 c-6 -4 -10 -18 -8 -31 2 -18 9 -24 28 -24 20 0 26 6 28
26 3 28 -24 44 -48 29z"/>
<path d="M1622 1479 c-50 -28 -68 -45 -37 -33 23 9 47 -15 39 -40 -6 -21 -6
-21 8 -1 36 51 58 94 50 99 -4 3 -32 -8 -60 -25z m48 6 c0 -3 -7 -17 -16 -31
-13 -20 -19 -22 -31 -12 -12 10 -11 14 9 30 23 18 38 23 38 13z"/>
<path d="M1699 1432 c-39 -42 -55 -71 -20 -34 35 36 38 31 16 -22 -8 -20 -12
-36 -8 -36 9 0 47 109 41 116 -3 2 -16 -9 -29 -24z"/>
<path d="M1748 1379 c-21 -11 -38 -22 -38 -25 0 -2 9 0 21 6 31 17 35 3 8 -28
-22 -25 -21 -25 9 3 35 31 59 65 45 65 -4 -1 -25 -10 -45 -21z"/>
<path d="M3664 1336 c-11 -29 0 -51 26 -51 21 0 25 5 25 30 0 24 -5 31 -23 33
-13 2 -24 -3 -28 -12z"/>
<path d="M1811 1311 c-27 -38 -27 -68 2 -81 20 -10 20 -10 5 3 -10 8 -18 23
-18 34 0 20 33 56 60 66 10 4 8 6 -7 6 -13 1 -30 -10 -42 -28z"/>
<path d="M1882 1305 c0 -16 2 -22 5 -12 2 9 2 23 0 30 -3 6 -5 -1 -5 -18z"/>
<path d="M1891 1246 c-26 -41 -27 -56 -3 -27 15 20 19 20 37 8 17 -13 18 -18
7 -41 -6 -14 -10 -26 -8 -26 8 0 67 102 62 107 -3 3 -11 -6 -17 -21 -14 -30
-17 -31 -43 -11 -11 8 -16 21 -13 30 10 25 0 17 -22 -19z"/>
<path d="M1985 1200 c-14 -27 -25 -52 -25 -54 0 -3 15 -13 33 -21 27 -14 29
-14 13 -1 -10 8 -24 17 -30 19 -7 2 -5 12 5 28 19 31 40 79 34 79 -3 0 -16
-22 -30 -50z"/>
<path d="M2085 1199 c-4 -6 -5 -12 -2 -15 2 -3 7 2 10 11 7 17 1 20 -8 4z"/>
<path d="M2120 1190 c8 -5 20 -10 25 -10 6 0 3 5 -5 10 -8 5 -19 10 -25 10 -5
0 -3 -5 5 -10z"/>
<path d="M2060 1140 c-7 -17 -10 -33 -8 -36 3 -3 8 6 12 20 4 18 11 24 24 20
10 -4 13 -2 7 3 -5 4 -13 12 -16 16 -4 4 -12 -6 -19 -23z"/>
<path d="M3460 1140 c0 -28 3 -31 28 -28 21 2 27 8 27 28 0 20 -6 26 -27 28
-25 3 -28 0 -28 -28z"/>
<path d="M3232 1003 c2 -22 8 -28 28 -28 20 0 25 5 25 25 0 20 -6 26 -28 28
-26 3 -28 1 -25 -25z"/>
</g>
</svg>
